<?xml version="1.0"?>
<svg xmlns="http://www.w3.org/2000/svg" height="512px" viewBox="0 0 512 512" width="512px"><path d="m467 0h-422c-24.8125 0-45 20.1875-45 45v331c0 24.8125 20.1875 45 45 45h160.261719l-20.109375 61h-49.152344c-8.285156 0-15 6.714844-15 15s6.714844 15 15 15h240c8.285156 0 15-6.714844 15-15s-6.714844-15-15-15h-49.152344l-20.109375-61h160.261719c24.8125 0 45-20.1875 45-45v-331c0-24.8125-20.1875-45-45-45zm-422 30h422c8.269531 0 15 6.730469 15 15v286h-452v-286c0-8.269531 6.730469-15 15-15zm250.261719 452h-78.523438l20.113281-61h38.300782zm171.738281-91h-422c-8.269531 0-15-6.730469-15-15v-15h452v15c0 8.269531-6.730469 15-15 15zm0 0" fill="#D80027"/><path d="m166 271h17.574219c23.351562 0 45.308593 9.09375 61.820312 25.605469 5.90625 5.90625 15.410157 5.800781 21.210938 0 16.511719-16.511719 38.46875-25.605469 61.820312-25.605469h17.574219c8.285156 0 15-6.714844 15-15v-150c0-8.285156-6.714844-15-15-15h-17.574219c-26.59375 0-51.839843 8.785156-72.425781 24.980469-20.585938-16.195313-45.828125-24.980469-72.425781-24.980469h-17.574219c-8.285156 0-15 6.714844-15 15v150c0 8.285156 6.714844 15 15 15zm165-150v120c-21.042969 0-40.355469 3.898438-60 14.945312v-113.414062c17.472656-15.269531 37.378906-21.53125 60-21.53125zm-150 0c22.660156 0 42.566406 6.269531 60 21.5v113.441406c-19.753906-11.109375-39.105469-14.941406-60-14.941406zm0 0" fill="#D80027"/></svg>
